# xmcd
#
# Track frame offsets:
# 150
# 23974
# 44973
# 65214
# 98893
# 121539
# 135220
# 159304
# 182061
# 212681
#
# Disc length: 3182 seconds
#
#
# Revision: 0
# Processed by: cddbd v1.5.1PL0 Copyright (c) Steve Scherf et al.
# Submitted via: FreeRIP 2.93 
#
DISCID=880c6c0a
DTITLE=heggen's heroes - makin love in lola
DYEAR=2001
DGENRE=Boogie
TTITLE0=hoodoo man
TTITLE1=i live the life i love
TTITLE2=birdnest
TTITLE3=loaded/vodoo music
TTITLE4=that's my life
TTITLE5=roll, roll, roll
TTITLE6=feels like rain
TTITLE7=heroes boogie
TTITLE8=who do you love
TTITLE9=walking the dog
EXTD=
EXTT0=
EXTT1=
EXTT2=
EXTT3=
EXTT4=
EXTT5=
EXTT6=
EXTT7=
EXTT8=
EXTT9=
PLAYORDER=
